<svg xmlns="http://www.w3.org/2000/svg" width="32" height="32" shape-rendering="crispEdges" viewBox="0 0 32 32"><rect width="32" height="32" fill="#0d0221"/><g fill="#ff71ce"><rect width="2" height="2" x="6" y="14"/><rect width="2" height="2" x="8" y="10"/><rect width="2" height="2" x="10" y="6"/><rect width="2" height="2" x="12" y="4"/><rect width="2" height="2" x="14" y="4"/><rect width="2" height="2" x="16" y="6"/><rect width="2" height="2" x="18" y="6"/><rect width="2" height="2" x="18" y="8"/><rect width="2" height="2" x="18" y="10"/><rect width="2" height="2" x="18" y="12"/><rect width="2" height="2" x="20" y="12"/><rect width="2" height="2" x="22" y="14"/><rect width="2" height="2" x="22" y="16"/><rect width="2" height="2" x="22" y="18"/><rect width="2" height="2" x="20" y="20"/><rect width="2" height="2" x="18" y="20"/><rect width="2" height="2" x="16" y="20"/><rect width="2" height="2" x="14" y="20"/><rect width="2" height="2" x="14" y="22"/><rect width="2" height="2" x="14" y="24"/><rect width="2" height="2" x="14" y="26"/><rect width="2" height="2" x="16" y="22"/><rect width="2" height="2" x="16" y="24"/><rect width="2" height="2" x="18" y="22"/><rect width="2" height="2" x="20" y="22"/></g><rect width="2" height="2" x="14" y="10" fill="#01cdfe"/><rect width="2" height="2" x="10" y="8" fill="#b967ff"/><rect width="2" height="2" x="8" y="12" fill="#b967ff"/></svg>