<svg xmlns="http://www.w3.org/2000/svg" viewBox="0 0 32 32" width="32" height="32" shape-rendering="crispEdges">
  
  <rect width="32" height="32" fill="#0d0221"></rect>
  <g fill="#ff71ce">
    <rect x="6" y="14" width="2" height="2"></rect>
    <rect x="8" y="10" width="2" height="2"></rect>
    <rect x="10" y="6" width="2" height="2"></rect>
    <rect x="12" y="4" width="2" height="2"></rect>
    <rect x="14" y="4" width="2" height="2"></rect>
    <rect x="16" y="6" width="2" height="2"></rect>
    <rect x="18" y="6" width="2" height="2"></rect>
    <rect x="18" y="8" width="2" height="2"></rect>
    <rect x="18" y="10" width="2" height="2"></rect>
    <rect x="18" y="12" width="2" height="2"></rect>
    <rect x="20" y="12" width="2" height="2"></rect>
    <rect x="22" y="14" width="2" height="2"></rect>
    <rect x="22" y="16" width="2" height="2"></rect>
    <rect x="22" y="18" width="2" height="2"></rect>
    <rect x="20" y="20" width="2" height="2"></rect>
    <rect x="18" y="20" width="2" height="2"></rect>
    <rect x="16" y="20" width="2" height="2"></rect>
    <rect x="14" y="20" width="2" height="2"></rect>
    <rect x="14" y="22" width="2" height="2"></rect>
    <rect x="14" y="24" width="2" height="2"></rect>
    <rect x="14" y="26" width="2" height="2"></rect>
    <rect x="16" y="22" width="2" height="2"></rect>
    <rect x="16" y="24" width="2" height="2"></rect>
    <rect x="18" y="22" width="2" height="2"></rect>
    <rect x="20" y="22" width="2" height="2"></rect>
  </g>
  
  <rect x="14" y="10" width="2" height="2" fill="#01cdfe"></rect>
  
  <rect x="10" y="8" width="2" height="2" fill="#b967ff"></rect>
  <rect x="8" y="12" width="2" height="2" fill="#b967ff"></rect>
</svg>