<svg xmlns="http://www.w3.org/2000/svg" width="32" height="32" shape-rendering="crispEdges" viewBox="0 0 32 32"><path fill="#0d0221" d="M0 0h32v32H0z"/><path fill="#ff71ce" d="M6 14h2v2H6zm2-4h2v2H8zm2-4h2v2h-2zm2-2h2v2h-2zm2 0h2v2h-2zm2 2h2v2h-2zm2 0h2v2h-2zm0 2h2v2h-2zm0 2h2v2h-2zm0 2h2v2h-2zm2 0h2v2h-2zm2 2h2v2h-2zm0 2h2v2h-2zm0 2h2v2h-2zm-2 2h2v2h-2zm-2 0h2v2h-2zm-2 0h2v2h-2zm-2 0h2v2h-2zm0 2h2v2h-2zm0 2h2v2h-2zm0 2h2v2h-2zm2-4h2v2h-2zm0 2h2v2h-2zm2-2h2v2h-2zm2 0h2v2h-2z"/><path fill="#01cdfe" d="M14 10h2v2h-2z"/><path fill="#b967ff" d="M10 8h2v2h-2zm-2 4h2v2H8z"/></svg>