<svg xmlns="http://www.w3.org/2000/svg" viewBox="0 0 320 80" width="320" height="80">
  <defs>
    
  </defs>
  
  <text x="12" y="58" class="wm-text" fill="#01cdfe" opacity="0.9">syn.horse</text>
  <text x="16" y="58" class="wm-text" fill="#ff71ce" opacity="0.9">syn.horse</text>
  <text x="14" y="58" class="wm-text" fill="#fff7ff">syn.horse</text>
  
  <g transform="translate(280, 28)">
    <rect x="0" y="8" width="4" height="4" fill="#ff71ce"></rect>
    <rect x="4" y="4" width="4" height="4" fill="#ff71ce"></rect>
    <rect x="8" y="0" width="4" height="4" fill="#ff71ce"></rect>
    <rect x="12" y="0" width="4" height="4" fill="#ff71ce"></rect>
    <rect x="16" y="4" width="4" height="4" fill="#ff71ce"></rect>
    <rect x="16" y="8" width="4" height="4" fill="#ff71ce"></rect>
    <rect x="16" y="12" width="4" height="4" fill="#ff71ce"></rect>
    <rect x="12" y="12" width="4" height="4" fill="#ff71ce"></rect>
    <rect x="12" y="16" width="4" height="4" fill="#ff71ce"></rect>
    <rect x="16" y="16" width="4" height="4" fill="#ff71ce"></rect>
    <rect x="20" y="16" width="4" height="4" fill="#ff71ce"></rect>
    <rect x="20" y="20" width="4" height="4" fill="#ff71ce"></rect>
    <rect x="16" y="20" width="4" height="4" fill="#ff71ce"></rect>
    <rect x="20" y="24" width="4" height="4" fill="#ff71ce"></rect>
    
    <rect x="12" y="8" width="2" height="2" fill="#01cdfe"></rect>
  </g>
</svg>