<svg xmlns="http://www.w3.org/2000/svg" width="320" height="80" viewBox="0 0 320 80"><text x="12" y="58" fill="#01cdfe" class="wm-text" opacity=".9">syn.horse</text><text x="16" y="58" fill="#ff71ce" class="wm-text" opacity=".9">syn.horse</text><text x="14" y="58" fill="#fff7ff" class="wm-text">syn.horse</text><g transform="translate(280, 28)"><rect width="4" height="4" x="0" y="8" fill="#ff71ce"/><rect width="4" height="4" x="4" y="4" fill="#ff71ce"/><rect width="4" height="4" x="8" y="0" fill="#ff71ce"/><rect width="4" height="4" x="12" y="0" fill="#ff71ce"/><rect width="4" height="4" x="16" y="4" fill="#ff71ce"/><rect width="4" height="4" x="16" y="8" fill="#ff71ce"/><rect width="4" height="4" x="16" y="12" fill="#ff71ce"/><rect width="4" height="4" x="12" y="12" fill="#ff71ce"/><rect width="4" height="4" x="12" y="16" fill="#ff71ce"/><rect width="4" height="4" x="16" y="16" fill="#ff71ce"/><rect width="4" height="4" x="20" y="16" fill="#ff71ce"/><rect width="4" height="4" x="20" y="20" fill="#ff71ce"/><rect width="4" height="4" x="16" y="20" fill="#ff71ce"/><rect width="4" height="4" x="20" y="24" fill="#ff71ce"/><rect width="2" height="2" x="12" y="8" fill="#01cdfe"/></g></svg>