<svg xmlns="http://www.w3.org/2000/svg" width="320" height="80" viewBox="0 0 320 80"><text x="12" y="58" fill="#01cdfe" class="wm-text" opacity=".9">syn.horse</text><text x="16" y="58" fill="#ff71ce" class="wm-text" opacity=".9">syn.horse</text><text x="14" y="58" fill="#fff7ff" class="wm-text">syn.horse</text><path fill="#ff71ce" d="M280 36h4v4h-4zm4-4h4v4h-4zm4-4h4v4h-4zm4 0h4v4h-4zm4 4h4v4h-4zm0 4h4v4h-4zm0 4h4v4h-4zm-4 0h4v4h-4zm0 4h4v4h-4zm4 0h4v4h-4zm4 0h4v4h-4zm0 4h4v4h-4zm-4 0h4v4h-4zm4 4h4v4h-4z"/><path fill="#01cdfe" d="M292 36h2v2h-2z"/></svg>