
<svg xmlns="http://www.w3.org/2000/svg" style="display:none">

  
  <symbol id="px-prompt" viewBox="0 0 16 16" shape-rendering="crispEdges">
    <g fill="currentColor">
      <rect x="2" y="3" width="2" height="2"></rect>
      <rect x="4" y="5" width="2" height="2"></rect>
      <rect x="6" y="7" width="2" height="2"></rect>
      <rect x="4" y="9" width="2" height="2"></rect>
      <rect x="2" y="11" width="2" height="2"></rect>
    </g>
  </symbol>

  
  <symbol id="px-diamond" viewBox="0 0 16 16" shape-rendering="crispEdges">
    <g fill="currentColor">
      <rect x="7" y="2" width="2" height="2"></rect>
      <rect x="5" y="4" width="2" height="2"></rect>
      <rect x="9" y="4" width="2" height="2"></rect>
      <rect x="3" y="6" width="2" height="2"></rect>
      <rect x="11" y="6" width="2" height="2"></rect>
      <rect x="5" y="8" width="2" height="2"></rect>
      <rect x="9" y="8" width="2" height="2"></rect>
      <rect x="7" y="10" width="2" height="2"></rect>
    </g>
  </symbol>

  
  <symbol id="px-spin-1" viewBox="0 0 16 16" shape-rendering="crispEdges">
    <g fill="currentColor">
      <rect x="7" y="2" width="2" height="2"></rect>
      <rect x="11" y="6" width="2" height="2"></rect>
      <rect x="7" y="10" width="2" height="2"></rect>
      <rect x="3" y="6" width="2" height="2"></rect>
    </g>
  </symbol>

  
  <symbol id="px-skull" viewBox="0 0 16 16" shape-rendering="crispEdges">
    <g fill="currentColor">
      <rect x="4" y="2" width="8" height="2"></rect>
      <rect x="2" y="4" width="2" height="6"></rect>
      <rect x="12" y="4" width="2" height="6"></rect>
      <rect x="4" y="10" width="8" height="2"></rect>
      <rect x="6" y="12" width="1" height="2"></rect>
      <rect x="9" y="12" width="1" height="2"></rect>
      <rect x="11" y="12" width="1" height="2"></rect>
    </g>
    <g fill="#0d0221">
      <rect x="5" y="6" width="2" height="2"></rect>
      <rect x="9" y="6" width="2" height="2"></rect>
      <rect x="7" y="9" width="2" height="1"></rect>
    </g>
  </symbol>

  
  <symbol id="px-heart" viewBox="0 0 16 16" shape-rendering="crispEdges">
    <g fill="currentColor">
      <rect x="3" y="3" width="3" height="2"></rect>
      <rect x="10" y="3" width="3" height="2"></rect>
      <rect x="2" y="5" width="5" height="2"></rect>
      <rect x="9" y="5" width="5" height="2"></rect>
      <rect x="3" y="7" width="10" height="2"></rect>
      <rect x="4" y="9" width="8" height="2"></rect>
      <rect x="5" y="11" width="6" height="1"></rect>
      <rect x="6" y="12" width="4" height="1"></rect>
      <rect x="7" y="13" width="2" height="1"></rect>
    </g>
  </symbol>

  
  <symbol id="px-save" viewBox="0 0 16 16" shape-rendering="crispEdges">
    <rect x="2" y="2" width="12" height="12" fill="currentColor"></rect>
    <rect x="4" y="3" width="6" height="3" fill="#0d0221"></rect>
    <rect x="8" y="4" width="1" height="1" fill="currentColor"></rect>
    <rect x="4" y="9" width="8" height="4" fill="#0d0221"></rect>
    <rect x="5" y="10" width="6" height="1" fill="currentColor"></rect>
    <rect x="5" y="12" width="6" height="1" fill="currentColor"></rect>
  </symbol>

  
  <symbol id="px-power" viewBox="0 0 16 16" shape-rendering="crispEdges">
    <g fill="currentColor">
      <rect x="7" y="2" width="2" height="6"></rect>
      <rect x="4" y="5" width="2" height="2"></rect>
      <rect x="10" y="5" width="2" height="2"></rect>
      <rect x="3" y="7" width="2" height="4"></rect>
      <rect x="11" y="7" width="2" height="4"></rect>
      <rect x="4" y="11" width="2" height="2"></rect>
      <rect x="10" y="11" width="2" height="2"></rect>
      <rect x="6" y="13" width="4" height="1"></rect>
    </g>
  </symbol>

  
  <symbol id="px-horse" viewBox="0 0 16 16" shape-rendering="crispEdges">
    <g fill="currentColor">
      <rect x="5" y="2" width="2" height="2"></rect>
      <rect x="7" y="2" width="2" height="2"></rect>
      <rect x="9" y="3" width="2" height="2"></rect>
      <rect x="9" y="5" width="2" height="2"></rect>
      <rect x="11" y="6" width="2" height="3"></rect>
      <rect x="9" y="9" width="2" height="2"></rect>
      <rect x="7" y="9" width="2" height="2"></rect>
      <rect x="7" y="11" width="2" height="3"></rect>
      <rect x="5" y="6" width="2" height="2"></rect>
      <rect x="3" y="7" width="2" height="2"></rect>
    </g>
    <rect x="7" y="5" width="1" height="1" fill="#01cdfe"></rect>
  </symbol>

</svg>