<svg xmlns="http://www.w3.org/2000/svg" style="display:none"><symbol id="px-prompt" shape-rendering="crispEdges" viewBox="0 0 16 16"><g fill="currentColor"><rect width="2" height="2" x="2" y="3"/><rect width="2" height="2" x="4" y="5"/><rect width="2" height="2" x="6" y="7"/><rect width="2" height="2" x="4" y="9"/><rect width="2" height="2" x="2" y="11"/></g></symbol><symbol id="px-diamond" shape-rendering="crispEdges" viewBox="0 0 16 16"><g fill="currentColor"><rect width="2" height="2" x="7" y="2"/><rect width="2" height="2" x="5" y="4"/><rect width="2" height="2" x="9" y="4"/><rect width="2" height="2" x="3" y="6"/><rect width="2" height="2" x="11" y="6"/><rect width="2" height="2" x="5" y="8"/><rect width="2" height="2" x="9" y="8"/><rect width="2" height="2" x="7" y="10"/></g></symbol><symbol id="px-spin-1" shape-rendering="crispEdges" viewBox="0 0 16 16"><g fill="currentColor"><rect width="2" height="2" x="7" y="2"/><rect width="2" height="2" x="11" y="6"/><rect width="2" height="2" x="7" y="10"/><rect width="2" height="2" x="3" y="6"/></g></symbol><symbol id="px-skull" shape-rendering="crispEdges" viewBox="0 0 16 16"><g fill="currentColor"><rect width="8" height="2" x="4" y="2"/><rect width="2" height="6" x="2" y="4"/><rect width="2" height="6" x="12" y="4"/><rect width="8" height="2" x="4" y="10"/><rect width="1" height="2" x="6" y="12"/><rect width="1" height="2" x="9" y="12"/><rect width="1" height="2" x="11" y="12"/></g><g fill="#0d0221"><rect width="2" height="2" x="5" y="6"/><rect width="2" height="2" x="9" y="6"/><rect width="2" height="1" x="7" y="9"/></g></symbol><symbol id="px-heart" shape-rendering="crispEdges" viewBox="0 0 16 16"><g fill="currentColor"><rect width="3" height="2" x="3" y="3"/><rect width="3" height="2" x="10" y="3"/><rect width="5" height="2" x="2" y="5"/><rect width="5" height="2" x="9" y="5"/><rect width="10" height="2" x="3" y="7"/><rect width="8" height="2" x="4" y="9"/><rect width="6" height="1" x="5" y="11"/><rect width="4" height="1" x="6" y="12"/><rect width="2" height="1" x="7" y="13"/></g></symbol><symbol id="px-save" shape-rendering="crispEdges" viewBox="0 0 16 16"><rect width="12" height="12" x="2" y="2" fill="currentColor"/><rect width="6" height="3" x="4" y="3" fill="#0d0221"/><rect width="1" height="1" x="8" y="4" fill="currentColor"/><rect width="8" height="4" x="4" y="9" fill="#0d0221"/><rect width="6" height="1" x="5" y="10" fill="currentColor"/><rect width="6" height="1" x="5" y="12" fill="currentColor"/></symbol><symbol id="px-power" shape-rendering="crispEdges" viewBox="0 0 16 16"><g fill="currentColor"><rect width="2" height="6" x="7" y="2"/><rect width="2" height="2" x="4" y="5"/><rect width="2" height="2" x="10" y="5"/><rect width="2" height="4" x="3" y="7"/><rect width="2" height="4" x="11" y="7"/><rect width="2" height="2" x="4" y="11"/><rect width="2" height="2" x="10" y="11"/><rect width="4" height="1" x="6" y="13"/></g></symbol><symbol id="px-horse" shape-rendering="crispEdges" viewBox="0 0 16 16"><g fill="currentColor"><rect width="2" height="2" x="5" y="2"/><rect width="2" height="2" x="7" y="2"/><rect width="2" height="2" x="9" y="3"/><rect width="2" height="2" x="9" y="5"/><rect width="2" height="3" x="11" y="6"/><rect width="2" height="2" x="9" y="9"/><rect width="2" height="2" x="7" y="9"/><rect width="2" height="3" x="7" y="11"/><rect width="2" height="2" x="5" y="6"/><rect width="2" height="2" x="3" y="7"/></g><rect width="1" height="1" x="7" y="5" fill="#01cdfe"/></symbol></svg>